I Love You Beth Cooper 2009 720p BluRay DD5.1 x264 Mux AleX-EbP

Video source: EpB release (thank you guys, you rock!)

Audio source: Italian & English Dolby Digital from DVD-PAL

General
Format                           : Matroska
File size                        : 6.03 GiB
Duration                         : 1h 37mn
Overall bit rate                 : 8 845 Kbps
Movie name                       : I Love You Beth Cooper (2009)
Encoded date                     : UTC 2010-01-24 19:52:53
Writing application              : mkvmerge v2.9.8 ('C'est le bon') built on Aug 13 2009 12:49:06
Writing library                  : libebml v0.7.7 + libmatroska v0.8.1

Video
ID                               : 1
Format                           : AVC
Format/Info                      : Advanced Video Codec
Format profile                   : High@L4.1
Format settings, CABAC           : Yes
Format settings, ReFrames        : 8 frames
Muxing mode                      : Container profile=Unknown@4.1
Codec ID                         : V_MPEG4/ISO/AVC
Duration                         : 1h 37mn
Bit rate                         : 7 836 Kbps
Nominal bit rate                 : 7 697 Kbps
Width                            : 1 280 pixels
Height                           : 690 pixels
Display aspect ratio             : 1.855
Frame rate                       : 25.000 fps
Original frame rate              : 23.976 fps
Resolution                       : 24 bits
Colorimetry                      : 4:2:0
Scan type                        : Progressive
Bits/(Pixel*Frame)               : 0.355
Stream size                      : 5.34 GiB (89%)
Title                            : Video 720p BluRay x264
Writing library                  : x264 core 78 r1301M bcba15d

Encoding settings
cabac=1 / ref=8 / deblock=1:-3:-3 / analyse=0x3:0x113 / me=umh / subme=9 / 
psy=1 / psy_rd=1.2:0.1 / mixed_ref=1 / me_range=48 / chroma_me=1 / trellis=2 / 
8x8dct=1 / cqm=0 / deadzone=21,11 / chroma_qp_offset=-3 / threads=6 / nr=0 / 
decimate=0 / mbaff=0 / constrained_intra=0 / bframes=6 / b_pyramid=2 / b_adapt=2 / 
b_bias=0 / direct=3 / wpredb=1 / keyint=250 / keyint_min=25 / scenecut=40 / rc=2pass / 
mbtree=0 / bitrate=7697 / ratetol=1.0 / qcomp=0.80 / qpmin=10 / qpmax=51 / qpstep=4 / 
cplxblur=20.0 / qblur=0.5 / ip_ratio=1.40 / pb_ratio=1.30 / aq=1:0.60

Audio #1
ID                               : 2
Format                           : AC-3
Format/Info                      : Audio Coding 3
Codec ID                         : A_AC3
Duration                         : 1h 37mn
Bit rate mode                    : Constant
Bit rate                         : 384 Kbps
Channel(s)                       : 6 channels
Channel positions                : Front: L C R, Surround: L R, LFE
Sampling rate                    : 48.0 KHz
Video delay                      : 352ms
Stream size                      : 268 MiB (4%)
Title                            : Italian DD5.1 @ 384 Kbps
Language                         : Italian

Audio #2
ID                               : 3
Format                           : AC-3
Format/Info                      : Audio Coding 3
Codec ID                         : A_AC3
Duration                         : 1h 37mn
Bit rate mode                    : Constant
Bit rate                         : 448 Kbps
Channel(s)                       : 6 channels
Channel positions                : Front: L C R, Surround: L R, LFE
Sampling rate                    : 48.0 KHz
Video delay                      : 352ms
Stream size                      : 313 MiB (5%)
Title                            : English DD5.1 @ 448 Kbps
Language                         : English

Subs
ID                               : 4
Format                           : UTF-8
Codec ID                         : S_TEXT/UTF8
Codec ID/Info                    : UTF-8 Plain Text
Title                            : Italian Subs
Language                         : Italian

Chapters                         : Yes